<?xml version="1.0" standalone="no"?>
<!DOCTYPE svg PUBLIC "-//W3C//DTD SVG 20010904//EN"
 "http://www.w3.org/TR/2001/REC-SVG-20010904/DTD/svg10.dtd">
<svg version="1.0" xmlns="http://www.w3.org/2000/svg"
 width="297.000000pt" height="190.000000pt" viewBox="0 0 297.000000 190.000000"
 preserveAspectRatio="xMidYMid meet">
<metadata>
Created by potrace 1.10, written by Peter Selinger 2001-2011
</metadata>
<g transform="translate(0.000000,190.000000) scale(0.100000,-0.100000)"
fill="#000000" stroke="none">
<path d="M1293 1736 c-211 -79 -325 -301 -268 -519 39 -152 139 -257 293 -308
85 -28 209 -23 292 11 122 51 220 157 254 274 20 67 20 196 2 257 -37 121
-120 218 -233 272 -61 29 -78 32 -173 34 -90 2 -114 -1 -167 -21z m338 -38
c155 -77 229 -197 229 -372 0 -97 -17 -156 -64 -230 -113 -177 -360 -237 -557
-134 -49 25 -134 110 -158 156 -94 184 -51 417 96 528 21 15 40 31 43 35 3 4
39 19 80 34 64 22 88 25 166 22 82 -2 100 -7 165 -39z"/>
<path d="M1300 1573 c-25 -9 -40 -35 -40 -70 0 -26 -4 -33 -19 -33 -24 0 -30
-8 -33 -49 -1 -19 -7 -30 -14 -27 -19 7 -54 -38 -54 -71 0 -34 33 -78 53 -70
10 4 14 -4 15 -26 1 -31 27 -61 43 -51 5 3 9 -10 9 -28 0 -40 24 -78 49 -78
20 0 41 38 41 74 0 18 8 27 30 35 23 7 30 16 30 35 0 20 4 24 18 19 21 -8 42
-35 36 -45 -3 -5 9 -8 26 -8 22 0 33 6 41 23 11 23 49 35 49 15 0 -21 31 -46
50 -41 10 3 24 18 30 34 7 16 16 26 21 23 5 -3 19 1 31 8 13 7 28 11 34 10 6
-1 19 6 28 17 21 23 19 100 -4 112 -36 18 -89 39 -100 39 -6 0 -8 5 -5 10 3 6
-1 17 -10 26 -21 22 -63 10 -70 -19 -9 -33 -42 -29 -54 5 -14 39 -51 38 -74
-2 -23 -37 -45 -39 -49 -2 -2 21 -9 28 -30 30 -25 3 -28 7 -28 42 0 22 -7 45
-16 54 -8 9 -16 16 -17 15 -1 0 -9 -3 -17 -6z m30 -252 c0 -200 -6 -241 -29
-227 -12 8 -16 447 -4 460 4 4 13 -1 20 -10 10 -13 13 -72 13 -223z m-72 1 c2
-104 0 -122 -13 -122 -13 0 -15 20 -15 126 0 96 3 125 13 122 8 -3 13 -40 15
-126z m132 2 c0 -114 -2 -125 -17 -122 -16 3 -18 18 -21 112 -3 120 0 136 23
136 13 0 15 -19 15 -126z m120 1 c0 -104 -2 -125 -15 -125 -13 0 -15 21 -15
125 0 104 2 125 15 125 13 0 15 -21 15 -125z m130 0 c0 -104 -2 -125 -15 -125
-13 0 -15 21 -15 125 0 104 2 125 15 125 13 0 15 -21 15 -125z m70 0 c0 -63
-14 -91 -31 -64 -13 20 -11 113 3 127 20 20 28 2 28 -63z m-262 0 c-4 -87 -22
-88 -26 -2 -2 56 0 67 13 67 13 0 15 -11 13 -65z m130 -2 c-2 -53 -6 -68 -18
-68 -11 0 -16 14 -18 54 -4 63 2 81 23 81 13 0 15 -11 13 -67z m-378 2 c0 -33
-4 -45 -15 -45 -11 0 -15 12 -15 45 0 33 4 45 15 45 11 0 15 -12 15 -45z m566
21 c8 -34 1 -61 -16 -61 -16 0 -26 45 -16 71 8 22 25 17 32 -10z"/>
<path d="M215 548 c-29 -17 -35 -28 -35 -75 0 -37 6 -50 50 -98 52 -57 61 -84
35 -105 -19 -16 -45 3 -45 31 0 14 -7 19 -26 19 -24 0 -26 -3 -20 -32 9 -47
33 -68 77 -68 41 0 66 18 75 56 10 40 -5 76 -52 127 -35 36 -45 54 -42 75 4
35 41 39 46 5 3 -17 10 -23 29 -23 23 0 25 3 19 32 -4 18 -12 38 -19 45 -18
19 -69 25 -92 11z m4 -42 c-16 -35 -6 -64 46 -124 43 -51 53 -80 39 -116 -3
-9 -10 -16 -15 -16 -6 0 -5 9 1 20 15 29 6 52 -46 112 -32 38 -44 60 -44 84 0
38 9 64 21 64 5 0 4 -11 -2 -24z m81 3 c0 -6 -4 -7 -10 -4 -5 3 -10 11 -10 16
0 6 5 7 10 4 6 -3 10 -11 10 -16z m-58 -259 c12 0 19 -3 15 -6 -12 -12 -57 6
-57 24 1 16 1 16 11 0 5 -10 20 -18 31 -18z"/>
<path d="M800 388 l0 -168 70 0 c68 0 70 1 70 25 0 23 -4 25 -45 25 l-45 0 0
51 0 51 35 -4 c31 -4 35 -1 35 19 0 20 -5 23 -35 23 l-35 0 0 50 0 50 45 0
c38 0 45 3 45 19 0 17 -9 20 -70 23 l-70 3 0 -167z m40 123 c-14 -27 -13 -87
3 -112 10 -17 10 -23 0 -26 -16 -6 -17 -86 -3 -114 8 -15 7 -19 -5 -19 -13 0
-15 21 -15 145 0 124 2 145 15 145 12 0 13 -4 5 -19z"/>
<path d="M1670 388 l0 -168 55 0 c46 0 60 4 80 25 24 23 25 30 25 143 0 148
-4 154 -94 162 l-66 5 0 -167z m50 132 c0 -5 8 -10 19 -10 35 0 42 -23 39
-131 l-3 -104 -27 -3 -28 -3 0 120 c0 74 -4 121 -10 121 -6 0 -10 -46 -10
-119 0 -126 3 -135 50 -144 16 -3 10 -5 -17 -6 l-43 -1 0 145 c0 122 2 145 15
145 8 0 15 -4 15 -10z m80 -16 c0 -8 -5 -12 -10 -9 -6 4 -8 11 -5 16 9 14 15
11 15 -7z m10 -119 c0 -52 -3 -95 -7 -95 -5 0 -7 43 -5 95 2 52 5 95 8 95 2 0
4 -43 4 -95z m-19 -128 c-10 -9 -11 -8 -5 6 3 10 9 15 12 12 3 -3 0 -11 -7
-18z"/>
<path d="M2112 550 c-55 -23 -51 -112 9 -170 49 -47 66 -88 45 -108 -12 -13
-18 -13 -30 -2 -9 7 -16 21 -16 31 0 14 -7 19 -25 19 -28 0 -33 -25 -14 -63
16 -30 28 -37 70 -37 89 0 100 101 20 184 -42 45 -55 73 -42 94 13 21 46 10
49 -16 3 -16 10 -22 28 -22 28 0 31 18 9 59 -19 38 -57 49 -103 31z m10 -32
c-26 -26 -14 -76 28 -122 23 -24 45 -57 49 -73 9 -32 -2 -73 -21 -73 -9 0 -9
3 0 12 25 25 13 66 -33 118 -39 43 -45 57 -45 94 0 43 5 56 24 56 6 0 5 -5 -2
-12z m78 -9 c0 -6 -4 -7 -10 -4 -5 3 -10 11 -10 16 0 6 5 7 10 4 6 -3 10 -11
10 -16z m-80 -262 c0 -5 -4 -5 -10 -2 -5 3 -10 14 -10 23 0 15 2 15 10 2 5 -8
10 -19 10 -23z"/>
<path d="M2347 540 c-27 -21 -27 -21 -27 -154 0 -151 7 -166 73 -166 51 0 77
28 77 83 0 39 -3 43 -22 43 -19 -1 -24 -8 -28 -41 -4 -32 -9 -40 -25 -40 -19
0 -20 7 -20 120 0 113 1 120 20 120 15 0 21 -8 23 -32 3 -27 7 -33 28 -33 21
0 24 5 24 34 0 69 -70 107 -123 66z m13 -29 c-13 -25 -13 -238 0 -246 6 -3 10
-11 10 -17 0 -7 -6 -6 -15 2 -19 16 -22 249 -3 268 17 17 20 15 8 -7z m78 -6
c-3 -3 -9 2 -12 12 -6 14 -5 15 5 6 7 -7 10 -15 7 -18z m2 -245 c0 -5 -5 -10
-11 -10 -5 0 -7 5 -4 10 3 6 8 10 11 10 2 0 4 -4 4 -10z"/>
<path d="M2603 550 c-35 -15 -43 -43 -43 -160 0 -145 12 -170 82 -170 28 0 42
6 58 27 20 26 21 37 18 150 -3 134 -9 149 -63 158 -17 2 -40 0 -52 -5z m1 -44
c-3 -9 -10 -13 -16 -10 -5 3 -4 12 3 20 15 18 22 13 13 -10z m90 -2 c9 -22 7
-227 -2 -241 -4 -6 -21 -14 -37 -18 l-30 -6 31 15 32 14 1 106 c1 60 -3 114
-9 126 -6 11 -7 20 -1 20 5 0 12 -7 15 -16z m-30 -10 c3 -9 6 -60 6 -114 0
-74 -4 -100 -15 -110 -12 -10 -18 -10 -30 0 -12 10 -15 37 -15 120 0 58 3 110
7 113 12 13 41 7 47 -9z m-49 -236 c6 -4 2 -8 -7 -8 -10 0 -18 7 -18 17 0 9 3
12 8 7 4 -5 12 -12 17 -16z"/>
<path d="M420 385 l0 -165 28 0 27 0 0 165 0 165 -27 0 -28 0 0 -165z m27 -37
c-2 -24 -4 -7 -4 37 0 44 2 63 4 43 2 -21 2 -57 0 -80z"/>
<path d="M570 385 l0 -165 70 0 c68 0 70 1 70 25 0 23 -4 25 -42 25 l-43 0 3
140 3 140 -30 0 -31 0 0 -165z m37 83 c-3 -8 -6 -5 -6 6 -1 11 2 17 5 13 3 -3
4 -12 1 -19z m7 -200 c4 -20 2 -28 -7 -28 -10 0 -14 27 -8 59 2 9 8 -5 15 -31z"/>
<path d="M1038 386 l-3 -166 23 0 c22 0 22 2 22 115 0 70 -4 115 -10 115 -5 0
-10 18 -10 40 0 28 4 40 15 40 14 0 32 -61 22 -77 -3 -5 7 -58 22 -118 26
-104 29 -110 54 -113 l27 -3 0 165 c0 159 -1 166 -20 166 -19 0 -20 -7 -20
-90 0 -53 4 -90 10 -90 6 0 10 -28 10 -65 0 -36 -4 -65 -9 -65 -12 0 -35 96
-28 115 4 8 -4 54 -17 102 -22 86 -23 88 -54 91 l-31 3 -3 -165z m29 -48 c-2
-13 -4 -3 -4 22 0 25 2 35 4 23 2 -13 2 -33 0 -45z"/>
<path d="M1290 530 c0 -15 7 -20 25 -20 l25 0 0 -145 0 -145 28 0 27 0 -3 145
-3 145 30 0 c24 0 31 4 31 20 0 18 -7 20 -80 20 -73 0 -80 -2 -80 -20z m100
-8 c0 -4 -4 -12 -10 -18 -5 -5 -11 -61 -13 -124 l-3 -115 -2 121 c-1 77 -6
124 -14 132 -9 9 -6 12 15 12 15 0 27 -4 27 -8z"/>
<path d="M1928 385 l-3 -165 28 0 27 0 0 165 0 165 -25 0 -24 0 -3 -165z m29
-37 c-2 -29 -3 -6 -3 52 0 58 1 81 3 53 2 -29 2 -77 0 -105z"/>
</g>
</svg>
